STARTFONT 2.1
FONT -sun-helmetcondensed-medium-r-semicondensed--24-240-75-75-p-109-adobe-fontspecific
SIZE 24 75 75
FONTBOUNDINGBOX 26 29 -4 -6

STARTPROPERTIES 28
FOUNDRY "sun"
FAMILY_NAME "helmetcondensed"
WEIGHT_NAME "medium"
SLANT "r"
SETWIDTH_NAME "semicondensed"
ADD_STYLE_NAME ""
PIXEL_SIZE 25
POINT_SIZE 240
RESOLUTION_X 75
RESOLUTION_Y 75
SPACING "p"
AVERAGE_WIDTH 109
CHARSET_REGISTRY "adobe"
CHARSET_ENCODING "fontspecific"
COPYRIGHT "© 1999 Sun Microsystems, Inc."
RAW_PIXELSIZE 1000
RAW_POINTSIZE 964
RAW_ASCENT 935
RAW_DESCENT 238
RAW_AVERAGE_WIDTH 4358
FACE_NAME "HelmetCondensedNormaledB5"
_XMBDFED_INFO "Edited with xmbdfed 2.4."
WEIGHT 10
X_HEIGHT -2
QUAD_WIDTH 13
DEFAULT_CHAR 4
FONT_DESCENT 6
FONT_ASCENT 23
ENDPROPERTIES

CHARS 210

STARTCHAR char32
ENCODING 32
SWIDTH 28 0
DWIDTH 8 0
BBX 0 0 0 0
BITMAP
ENDCHAR

STARTCHAR char33
ENCODING 33
SWIDTH 17 0
DWIDTH 5 0
BBX 2 18 2 0
BITMAP
80
80
80
80
80
80
80
80
80
80
80
80
80
80
00
00
00
C0
ENDCHAR

STARTCHAR char34
ENCODING 34
SWIDTH 28 0
DWIDTH 8 0
BBX 5 6 1 12
BITMAP
C8
C8
48
48
C8
88
ENDCHAR

STARTCHAR char35
ENCODING 35
SWIDTH 13 0
DWIDTH 14 0
BBX 13 18 0 0
BITMAP
0460
0460
0C60
0C60
0C60
7FF8
0840
08C0
18C0
18C0
18C0
FFF0
FFF0
1880
1180
1180
3180
3180
ENDCHAR

STARTCHAR char36
ENCODING 36
SWIDTH 3 0
DWIDTH 11 0
BBX 9 20 1 -2
BITMAP
0800
3E00
4B00
8900
8900
8800
C800
6800
3800
0E00
0B00
0980
8880
8880
8880
C980
7F00
1C00
0800
0800
ENDCHAR

STARTCHAR char37
ENCODING 37
SWIDTH 31 0
DWIDTH 19 0
BBX 17 18 0 0
BITMAP
380400
480800
C40800
C41000
841000
842000
842000
844F00
844900
449080
489080
391080
031080
021080
061880
041880
0C0900
080F00
ENDCHAR

STARTCHAR char38
ENCODING 38
SWIDTH 10 0
DWIDTH 13 0
BBX 12 17 1 0
BITMAP
1E00
2300
2100
2100
2300
1600
1C00
1800
3C00
4660
C260
8160
81C0
80C0
C0C0
61E0
3E30
ENDCHAR

STARTCHAR char39
ENCODING 39
SWIDTH 14 0
DWIDTH 4 0
BBX 2 5 1 13
BITMAP
40
80
80
80
C0
ENDCHAR

STARTCHAR char40
ENCODING 40
SWIDTH 17 0
DWIDTH 5 0
BBX 5 22 1 -3
BITMAP
10
30
20
60
40
40
40
80
80
80
80
80
80
80
C0
40
40
60
20
20
10
10
ENDCHAR

STARTCHAR char41
ENCODING 41
SWIDTH 17 0
DWIDTH 5 0
BBX 4 22 0 -3
BITMAP
80
40
40
20
20
20
10
10
10
10
10
10
10
10
10
30
20
20
20
40
40
80
ENDCHAR

STARTCHAR char42
ENCODING 42
SWIDTH 32 0
DWIDTH 9 0
BBX 7 7 1 11
BITMAP
10
10
96
78
28
68
44
ENDCHAR

STARTCHAR char43
ENCODING 43
SWIDTH 10 0
DWIDTH 13 0
BBX 11 11 0 2
BITMAP
0200
0200
0200
0200
0200
FFE0
0200
0200
0200
0200
0200
ENDCHAR

STARTCHAR char44
ENCODING 44
SWIDTH 14 0
DWIDTH 4 0
BBX 1 4 1 -3
BITMAP
80
80
80
80
ENDCHAR

STARTCHAR char45
ENCODING 45
SWIDTH 28 0
DWIDTH 8 0
BBX 6 1 1 6
BITMAP
FC
ENDCHAR

STARTCHAR char46
ENCODING 46
SWIDTH 14 0
DWIDTH 4 0
BBX 1 1 1 0
BITMAP
80
ENDCHAR

STARTCHAR char47
ENCODING 47
SWIDTH 28 0
DWIDTH 8 0
BBX 7 19 0 -1
BITMAP
02
04
04
04
08
08
08
08
10
10
10
20
20
20
20
40
40
40
80
ENDCHAR

STARTCHAR char48
ENCODING 48
SWIDTH 3 0
DWIDTH 11 0
BBX 9 18 1 0
BITMAP
1C00
2200
4100
4100
C080
C080
8080
8080
8080
8080
8080
8080
8080
8080
4180
4100
6300
3C00
ENDCHAR

STARTCHAR char49
ENCODING 49
SWIDTH 3 0
DWIDTH 11 0
BBX 5 18 2 0
BITMAP
08
08
18
78
F8
08
08
08
08
08
08
08
08
08
08
08
08
08
ENDCHAR

STARTCHAR char50
ENCODING 50
SWIDTH 3 0
DWIDTH 11 0
BBX 9 18 1 0
BITMAP
1C00
6200
4100
C100
C100
0100
0100
0100
0300
0600
0C00
1800
3000
6000
4000
C000
C000
FF80
ENDCHAR

STARTCHAR char51
ENCODING 51
SWIDTH 3 0
DWIDTH 11 0
BBX 9 18 1 0
BITMAP
3C00
6600
4300
C100
C100
0100
0300
0600
1C00
1600
0100
0100
0180
8180
8180
C100
6300
3C00
ENDCHAR

STARTCHAR char52
ENCODING 52
SWIDTH 3 0
DWIDTH 11 0
BBX 10 18 0 0
BITMAP
0100
0300
0300
0700
0500
0900
1900
1100
3100
2100
6100
4100
FFC0
0100
0100
0100
0100
0100
ENDCHAR

STARTCHAR char53
ENCODING 53
SWIDTH 3 0
DWIDTH 11 0
BBX 9 17 1 0
BITMAP
7F00
6000
4000
4000
4000
4000
5E00
6300
0180
0080
0080
0080
0080
C180
C100
6300
3E00
ENDCHAR

STARTCHAR char54
ENCODING 54
SWIDTH 3 0
DWIDTH 11 0
BBX 9 18 1 0
BITMAP
1E00
3300
6100
4180
4000
C000
C000
DE00
A300
C100
8080
8080
8080
8080
C180
4100
6300
3E00
ENDCHAR

STARTCHAR char55
ENCODING 55
SWIDTH 3 0
DWIDTH 11 0
BBX 9 17 1 0
BITMAP
FF80
0180
0300
0200
0600
0400
0C00
0800
0800
1800
1000
1000
3000
3000
3000
3000
2000
ENDCHAR

STARTCHAR char56
ENCODING 56
SWIDTH 3 0
DWIDTH 11 0
BBX 9 18 1 0
BITMAP
1C00
2200
4300
4100
4100
4100
4300
2200
3C00
6300
C100
C180
C180
C180
C180
4100
6300
3E00
ENDCHAR

STARTCHAR char57
ENCODING 57
SWIDTH 3 0
DWIDTH 11 0
BBX 8 18 1 0
BITMAP
3C
66
42
C1
81
81
81
81
C1
C3
65
3D
01
01
C2
42
66
3C
ENDCHAR

STARTCHAR char58
ENCODING 58
SWIDTH 17 0
DWIDTH 5 0
BBX 2 12 2 0
BITMAP
40
00
00
00
00
00
00
00
00
00
00
C0
ENDCHAR

STARTCHAR char59
ENCODING 59
SWIDTH 17 0
DWIDTH 5 0
BBX 2 15 2 -3
BITMAP
C0
00
00
00
00
00
00
00
00
00
00
C0
40
40
80
ENDCHAR

STARTCHAR char60
ENCODING 60
SWIDTH 17 0
DWIDTH 15 0
BBX 12 13 1 0
BITMAP
0010
0030
01E0
0780
1E00
7000
C000
F000
3C00
0F00
03C0
0070
0010
ENDCHAR

STARTCHAR char61
ENCODING 61
SWIDTH 10 0
DWIDTH 13 0
BBX 12 5 0 5
BITMAP
FFF0
0000
0000
0000
FFF0
ENDCHAR

STARTCHAR char62
ENCODING 62
SWIDTH 17 0
DWIDTH 15 0
BBX 13 13 1 0
BITMAP
8000
E000
7800
0E00
0380
00F0
0038
0078
01C0
0F00
3C00
F000
8000
ENDCHAR

STARTCHAR char63
ENCODING 63
SWIDTH 35 0
DWIDTH 10 0
BBX 8 18 1 0
BITMAP
3C
46
C3
81
81
01
03
06
04
08
08
10
10
10
00
00
00
10
ENDCHAR

STARTCHAR char64
ENCODING 64
SWIDTH 24 0
DWIDTH 27 0
BBX 17 18 4 0
BITMAP
07F800
1C0E00
300700
600100
41ED80
C33C80
861880
841880
8C1880
881880
883180
883100
C47300
439D00
600100
300200
1C0C00
07F000
ENDCHAR

STARTCHAR char65
ENCODING 65
SWIDTH 3 0
DWIDTH 11 0
BBX 11 18 0 0
BITMAP
0C00
0E00
0A00
0A00
1B00
1300
1100
3100
3180
2180
2080
7F80
60C0
40C0
4040
C040
C060
8060
ENDCHAR

STARTCHAR char66
ENCODING 66
SWIDTH 6 0
DWIDTH 12 0
BBX 10 18 1 0
BITMAP
FE00
8300
8180
8080
8080
8080
8180
8300
FE00
8300
8180
8080
80C0
80C0
8080
8180
8300
FE00
ENDCHAR

STARTCHAR char67
ENCODING 67
SWIDTH 10 0
DWIDTH 13 0
BBX 10 18 1 0
BITMAP
1E00
3180
6080
40C0
C0C0
8000
8000
8000
8000
8000
8000
8000
8040
C0C0
40C0
4080
2180
1E00
ENDCHAR

STARTCHAR char68
ENCODING 68
SWIDTH 10 0
DWIDTH 13 0
BBX 10 18 1 0
BITMAP
FE00
8300
8180
8080
80C0
8040
8040
8040
8040
8040
8040
8040
8040
80C0
8080
8080
8300
FE00
ENDCHAR

STARTCHAR char69
ENCODING 69
SWIDTH 3 0
DWIDTH 11 0
BBX 9 18 1 0
BITMAP
FF80
8000
8000
8000
8000
8000
8000
8000
FF00
8000
8000
8000
8000
8000
8000
8000
8000
FF80
ENDCHAR

STARTCHAR char70
ENCODING 70
SWIDTH 35 0
DWIDTH 10 0
BBX 9 18 1 0
BITMAP
FF80
C000
C000
C000
C000
C000
C000
C000
FF00
8000
8000
8000
8000
8000
8000
8000
8000
8000
ENDCHAR

STARTCHAR char71
ENCODING 71
SWIDTH 10 0
DWIDTH 13 0
BBX 10 18 1 0
BITMAP
1E00
2380
6080
4080
C0C0
8000
8000
8000
8000
87C0
8040
8040
8040
80C0
40C0
40C0
2140
1E40
ENDCHAR

STARTCHAR char72
ENCODING 72
SWIDTH 10 0
DWIDTH 13 0
BBX 10 18 1 0
BITMAP
8040
8040
8040
8040
8040
8040
8040
8040
FFC0
8040
8040
8040
8040
8040
8040
8040
8040
8040
ENDCHAR

STARTCHAR char73
ENCODING 73
SWIDTH 14 0
DWIDTH 4 0
BBX 1 18 2 0
BITMAP
80
80
80
80
80
80
80
80
80
80
80
80
80
80
80
80
80
80
ENDCHAR

STARTCHAR char74
ENCODING 74
SWIDTH 32 0
DWIDTH 9 0
BBX 6 18 1 0
BITMAP
04
04
04
04
04
04
04
04
04
04
04
04
04
84
84
84
C8
78
ENDCHAR

STARTCHAR char75
ENCODING 75
SWIDTH 3 0
DWIDTH 11 0
BBX 10 18 1 0
BITMAP
C0C0
C180
C180
C300
C600
CC00
C800
D800
F800
EC00
C400
8600
8200
8300
8100
8180
8080
80C0
ENDCHAR

STARTCHAR char76
ENCODING 76
SWIDTH 35 0
DWIDTH 10 0
BBX 8 18 2 0
BITMAP
80
80
80
80
80
80
80
80
80
80
80
80
80
80
80
80
80
FF
ENDCHAR

STARTCHAR char77
ENCODING 77
SWIDTH 24 0
DWIDTH 17 0
BBX 13 18 1 0
BITMAP
E018
E018
E028
A028
B028
B028
9028
9848
9848
9848
8888
8C88
8C88
8488
8588
8708
8308
8308
ENDCHAR

STARTCHAR char78
ENCODING 78
SWIDTH 10 0
DWIDTH 13 0
BBX 10 18 1 0
BITMAP
C040
E040
E040
F040
B040
B040
9840
9840
8C40
8C40
8640
8640
8340
8340
81C0
81C0
80C0
80C0
ENDCHAR

STARTCHAR char79
ENCODING 79
SWIDTH 10 0
DWIDTH 13 0
BBX 10 18 1 0
BITMAP
1E00
3100
6080
4080
C040
8040
8040
8040
8040
8040
8040
8040
8040
8040
4080
4080
7100
1E00
ENDCHAR

STARTCHAR char80
ENCODING 80
SWIDTH 3 0
DWIDTH 11 0
BBX 9 18 1 0
BITMAP
FE00
8300
8180
8080
8080
8080
8080
8100
8700
FC00
C000
C000
C000
C000
C000
C000
C000
C000
ENDCHAR

STARTCHAR char81
ENCODING 81
SWIDTH 10 0
DWIDTH 13 0
BBX 11 19 1 -1
BITMAP
1E00
3100
6080
4080
C040
8040
8040
8040
8040
8040
8040
8040
8040
C040
4280
4380
6180
1E60
0040
ENDCHAR

STARTCHAR char82
ENCODING 82
SWIDTH 6 0
DWIDTH 12 0
BBX 10 18 1 0
BITMAP
FE00
C300
8180
8080
8080
8080
8080
8100
8300
FE00
8100
8180
8180
8080
8080
8080
8080
80C0
ENDCHAR

STARTCHAR char83
ENCODING 83
SWIDTH 6 0
DWIDTH 12 0
BBX 9 18 1 0
BITMAP
3E00
6300
C180
8080
8080
8000
C000
6000
3800
0F00
0380
0180
0080
8080
8080
C080
6100
3E00
ENDCHAR

STARTCHAR char84
ENCODING 84
SWIDTH 35 0
DWIDTH 10 0
BBX 10 18 0 0
BITMAP
FFC0
0800
0800
0800
0800
0800
0800
0800
0800
0800
0800
0800
0800
0800
0800
0800
0800
0800
ENDCHAR

STARTCHAR char85
ENCODING 85
SWIDTH 10 0
DWIDTH 13 0
BBX 10 18 1 0
BITMAP
8040
8040
8040
8040
8040
8040
8040
8040
8040
8040
8040
8040
8040
8040
8040
C0C0
6180
1F00
ENDCHAR

STARTCHAR char86
ENCODING 86
SWIDTH 3 0
DWIDTH 11 0
BBX 11 18 0 0
BITMAP
8060
C060
C040
4040
40C0
60C0
6080
2080
2180
3180
1100
1100
1B00
1B00
0A00
0A00
0E00
0E00
ENDCHAR

STARTCHAR char87
ENCODING 87
SWIDTH 24 0
DWIDTH 17 0
BBX 16 18 0 0
BITMAP
C181
C181
C1C3
41C3
4343
4342
6242
6246
2266
2626
2624
3424
3424
143C
1C3C
1C18
1818
1818
ENDCHAR

STARTCHAR char88
ENCODING 88
SWIDTH 3 0
DWIDTH 11 0
BBX 11 18 0 0
BITMAP
C060
40C0
60C0
2180
3180
1300
1A00
0E00
0C00
0E00
0E00
1B00
1300
3180
6180
60C0
C040
C060
ENDCHAR

STARTCHAR char89
ENCODING 89
SWIDTH 3 0
DWIDTH 11 0
BBX 11 18 0 0
BITMAP
C060
4040
60C0
2080
2180
1100
1300
0A00
0E00
0400
0400
0400
0400
0400
0400
0400
0400
0400
ENDCHAR

STARTCHAR char90
ENCODING 90
SWIDTH 32 0
DWIDTH 9 0
BBX 9 18 0 0
BITMAP
FF80
0180
0100
0300
0300
0600
0600
0C00
0C00
1800
1800
3000
3000
6000
6000
C000
C000
FF80
ENDCHAR

STARTCHAR char91
ENCODING 91
SWIDTH 17 0
DWIDTH 5 0
BBX 4 23 2 -4
BITMAP
F0
80
80
80
80
80
80
80
80
80
80
80
80
80
80
80
80
80
80
80
80
80
F0
ENDCHAR

STARTCHAR char92
ENCODING 92
SWIDTH 25 0
DWIDTH 7 0
BBX 7 18 0 0
BITMAP
C0
C0
40
40
60
60
20
30
30
10
18
18
08
0C
0C
04
06
06
ENDCHAR

STARTCHAR char93
ENCODING 93
SWIDTH 17 0
DWIDTH 5 0
BBX 3 22 0 -3
BITMAP
E0
20
20
20
20
20
20
20
20
20
20
20
20
20
20
20
20
20
20
20
20
E0
ENDCHAR

STARTCHAR char94
ENCODING 94
SWIDTH 0 0
DWIDTH 0 0
BBX 7 3 -3 19
BITMAP
38
48
C4
ENDCHAR

STARTCHAR char95
ENCODING 95
SWIDTH 17 0
DWIDTH 15 0
BBX 14 1 0 -3
BITMAP
FFFC
ENDCHAR

STARTCHAR char96
ENCODING 96
SWIDTH 0 0
DWIDTH 0 0
BBX 5 3 -4 14
BITMAP
60
30
18
ENDCHAR

STARTCHAR char97
ENCODING 97
SWIDTH 35 0
DWIDTH 10 0
BBX 8 13 1 0
BITMAP
7C
46
86
02
06
0E
72
C2
82
82
86
CE
79
ENDCHAR

STARTCHAR char98
ENCODING 98
SWIDTH 35 0
DWIDTH 10 0
BBX 8 18 1 0
BITMAP
80
80
80
80
80
BC
E2
C3
C1
81
81
81
81
81
C1
C2
E2
BC
ENDCHAR

STARTCHAR char99
ENCODING 99
SWIDTH 32 0
DWIDTH 9 0
BBX 7 13 1 0
BITMAP
3C
46
C2
82
80
80
80
80
80
82
C2
46
3C
ENDCHAR

STARTCHAR char100
ENCODING 100
SWIDTH 35 0
DWIDTH 10 0
BBX 8 18 1 0
BITMAP
03
03
03
03
03
3B
47
C3
81
81
81
81
81
81
83
C3
47
3F
ENDCHAR

STARTCHAR char101
ENCODING 101
SWIDTH 35 0
DWIDTH 10 0
BBX 8 13 1 0
BITMAP
3C
46
83
81
81
FF
80
80
80
83
C3
46
3C
ENDCHAR

STARTCHAR char102
ENCODING 102
SWIDTH 17 0
DWIDTH 5 0
BBX 5 18 0 0
BITMAP
18
30
20
20
20
F8
20
20
20
20
20
20
20
20
20
20
20
20
ENDCHAR

STARTCHAR char103
ENCODING 103
SWIDTH 35 0
DWIDTH 10 0
BBX 8 17 1 -4
BITMAP
3F
47
43
81
81
81
81
81
81
83
C3
47
3F
03
C3
46
7C
ENDCHAR

STARTCHAR char104
ENCODING 104
SWIDTH 35 0
DWIDTH 10 0
BBX 8 18 1 0
BITMAP
80
80
80
80
80
BE
C3
81
81
81
81
81
81
81
81
81
81
81
ENDCHAR

STARTCHAR char105
ENCODING 105
SWIDTH 14 0
DWIDTH 4 0
BBX 2 18 1 0
BITMAP
C0
C0
00
00
00
80
80
80
80
80
80
80
80
80
80
80
80
80
ENDCHAR

STARTCHAR char106
ENCODING 106
SWIDTH 14 0
DWIDTH 4 0
BBX 3 22 0 -4
BITMAP
60
60
00
00
00
40
40
40
40
40
40
40
40
40
40
40
40
40
40
40
40
C0
ENDCHAR

STARTCHAR char107
ENCODING 107
SWIDTH 32 0
DWIDTH 9 0
BBX 8 18 1 0
BITMAP
80
80
80
80
80
82
84
8C
98
90
B0
F8
C8
8C
84
86
82
82
ENDCHAR

STARTCHAR char108
ENCODING 108
SWIDTH 14 0
DWIDTH 4 0
BBX 1 18 1 0
BITMAP
80
80
80
80
80
80
80
80
80
80
80
80
80
80
80
80
80
80
ENDCHAR

STARTCHAR char109
ENCODING 109
SWIDTH 21 0
DWIDTH 16 0
BBX 13 13 1 0
BITMAP
BCF0
C718
8208
8208
8208
8208
8208
8208
8208
8208
8208
8208
8208
ENDCHAR

STARTCHAR char110
ENCODING 110
SWIDTH 35 0
DWIDTH 10 0
BBX 8 13 1 0
BITMAP
9E
E3
C1
81
81
81
81
81
81
81
81
81
81
ENDCHAR

STARTCHAR char111
ENCODING 111
SWIDTH 35 0
DWIDTH 10 0
BBX 8 13 1 0
BITMAP
3C
42
C3
81
81
81
81
81
81
81
C2
42
3C
ENDCHAR

STARTCHAR char112
ENCODING 112
SWIDTH 35 0
DWIDTH 10 0
BBX 8 17 1 -4
BITMAP
BC
E2
C3
C1
81
81
81
81
81
C1
C3
E6
BC
80
80
80
80
ENDCHAR

STARTCHAR char113
ENCODING 113
SWIDTH 35 0
DWIDTH 10 0
BBX 8 17 1 -4
BITMAP
3D
47
C3
81
81
81
81
81
81
83
C3
47
3D
01
03
03
03
ENDCHAR

STARTCHAR char114
ENCODING 114
SWIDTH 21 0
DWIDTH 6 0
BBX 5 13 1 0
BITMAP
98
E0
C0
80
80
80
80
80
80
80
80
80
80
ENDCHAR

STARTCHAR char115
ENCODING 115
SWIDTH 32 0
DWIDTH 9 0
BBX 7 13 1 0
BITMAP
38
44
86
80
C0
70
18
04
02
02
82
C4
38
ENDCHAR

STARTCHAR char116
ENCODING 116
SWIDTH 17 0
DWIDTH 5 0
BBX 4 17 1 0
BITMAP
40
40
40
40
F0
40
40
40
40
40
40
40
40
40
40
40
30
ENDCHAR

STARTCHAR char117
ENCODING 117
SWIDTH 35 0
DWIDTH 10 0
BBX 8 13 1 0
BITMAP
83
83
83
83
83
83
83
83
83
83
83
C7
79
ENDCHAR

STARTCHAR char118
ENCODING 118
SWIDTH 28 0
DWIDTH 8 0
BBX 8 13 0 0
BITMAP
81
C3
C3
42
42
66
64
24
24
3C
18
18
18
ENDCHAR

STARTCHAR char119
ENCODING 119
SWIDTH 10 0
DWIDTH 13 0
BBX 13 13 0 0
BITMAP
8218
C610
4710
4510
4530
4530
6D20
29A0
28A0
28E0
38C0
38C0
10C0
ENDCHAR

STARTCHAR char120
ENCODING 120
SWIDTH 32 0
DWIDTH 9 0
BBX 8 13 0 0
BITMAP
C1
43
66
26
3C
18
18
1C
34
26
62
C3
C1
ENDCHAR

STARTCHAR char121
ENCODING 121
SWIDTH 28 0
DWIDTH 8 0
BBX 8 17 0 -4
BITMAP
81
C1
43
43
42
62
26
24
24
3C
18
18
18
18
10
30
E0
ENDCHAR

STARTCHAR char122
ENCODING 122
SWIDTH 28 0
DWIDTH 8 0
BBX 8 13 0 0
BITMAP
7F
03
02
06
04
0C
18
10
30
20
60
40
FF
ENDCHAR

STARTCHAR char123
ENCODING 123
SWIDTH 32 0
DWIDTH 9 0
BBX 6 23 1 -5
BITMAP
0C
18
10
30
30
30
30
30
30
30
60
C0
60
30
10
10
10
10
10
10
10
18
0C
ENDCHAR

STARTCHAR char124
ENCODING 124
SWIDTH 25 0
DWIDTH 7 0
BBX 1 18 3 0
BITMAP
80
80
80
80
80
80
80
80
80
80
80
80
80
80
80
80
80
80
ENDCHAR

STARTCHAR char125
ENCODING 125
SWIDTH 32 0
DWIDTH 9 0
BBX 6 23 1 -5
BITMAP
E0
30
10
10
10
10
10
10
10
18
0C
0C
08
18
10
30
30
10
10
10
10
30
E0
ENDCHAR

STARTCHAR char126
ENCODING 126
SWIDTH 0 0
DWIDTH 0 0
BBX 8 2 -4 20
BITMAP
71
4E
ENDCHAR

STARTCHAR char128
ENCODING 128
SWIDTH 10 0
DWIDTH 13 0
BBX 12 18 -1 0
BITMAP
0780
0C60
1820
1030
3030
3000
2000
FFC0
2000
FFC0
2000
2000
2010
3030
1030
1020
0860
0780
ENDCHAR

STARTCHAR char130
ENCODING 130
SWIDTH 14 0
DWIDTH 4 0
BBX 1 4 1 -3
BITMAP
80
80
80
80
ENDCHAR

STARTCHAR char131
ENCODING 131
SWIDTH 0 0
DWIDTH 0 0
BBX 7 3 -3 19
BITMAP
38
48
C4
ENDCHAR

STARTCHAR char132
ENCODING 132
SWIDTH 28 0
DWIDTH 8 0
BBX 5 4 1 -3
BITMAP
88
88
88
88
ENDCHAR

STARTCHAR char133
ENCODING 133
SWIDTH 24 0
DWIDTH 27 0
BBX 19 3 3 0
BITMAP
E0E0E0
E0E0E0
E0E0E0
ENDCHAR

STARTCHAR char134
ENCODING 134
SWIDTH 3 0
DWIDTH 11 0
BBX 9 21 1 -3
BITMAP
0800
0800
0800
0800
0800
0800
FF80
0800
0800
0800
0800
0800
0800
0800
0800
0800
0800
0800
0800
0800
0800
ENDCHAR

STARTCHAR char135
ENCODING 135
SWIDTH 16 0
DWIDTH 25 0
BBX 0 0 0 0
BITMAP
ENDCHAR

STARTCHAR char136
ENCODING 136
SWIDTH 0 0
DWIDTH 0 0
BBX 7 4 -3 14
BITMAP
30
78
4C
C4
ENDCHAR

STARTCHAR char137
ENCODING 137
SWIDTH 16 0
DWIDTH 25 0
BBX 0 0 0 0
BITMAP
ENDCHAR

STARTCHAR char139
ENCODING 139
SWIDTH 32 0
DWIDTH 9 0
BBX 4 8 2 3
BITMAP
10
30
70
C0
C0
60
30
10
ENDCHAR

STARTCHAR char140
ENCODING 140
SWIDTH 31 0
DWIDTH 19 0
BBX 16 18 1 0
BITMAP
3CFF
62FF
4180
4180
8180
8080
8080
8080
80FE
8080
8080
8080
8080
8080
4180
4180
6280
1CFF
ENDCHAR

STARTCHAR char142
ENCODING 142
SWIDTH 16 0
DWIDTH 25 0
BBX 0 0 0 0
BITMAP
ENDCHAR

STARTCHAR char144
ENCODING 144
SWIDTH 16 0
DWIDTH 25 0
BBX 0 0 0 0
BITMAP
ENDCHAR

STARTCHAR char145
ENCODING 145
SWIDTH 14 0
DWIDTH 4 0
BBX 1 5 1 13
BITMAP
80
80
80
80
80
ENDCHAR

STARTCHAR char146
ENCODING 146
SWIDTH 14 0
DWIDTH 4 0
BBX 1 6 1 12
BITMAP
80
80
80
80
80
80
ENDCHAR

STARTCHAR char147
ENCODING 147
SWIDTH 28 0
DWIDTH 8 0
BBX 5 5 1 13
BITMAP
48
88
88
88
88
ENDCHAR

STARTCHAR char148
ENCODING 148
SWIDTH 28 0
DWIDTH 8 0
BBX 5 6 1 12
BITMAP
88
88
88
88
88
88
ENDCHAR

STARTCHAR char149
ENCODING 149
SWIDTH 32 0
DWIDTH 9 0
BBX 7 6 1 6
BITMAP
38
7C
FE
FE
FE
38
ENDCHAR

STARTCHAR char150
ENCODING 150
SWIDTH 3 0
DWIDTH 11 0
BBX 9 1 1 6
BITMAP
FF80
ENDCHAR

STARTCHAR char151
ENCODING 151
SWIDTH 10 0
DWIDTH 13 0
BBX 12 1 0 7
BITMAP
FFF0
ENDCHAR

STARTCHAR char152
ENCODING 152
SWIDTH 0 0
DWIDTH 0 0
BBX 7 2 -3 15
BITMAP
E2
9C
ENDCHAR

STARTCHAR char153
ENCODING 153
SWIDTH 9 0
DWIDTH 23 0
BBX 20 10 0 7
BITMAP
FFF070
933060
9130A0
1038A0
1028A0
102D20
102D20
102620
102620
3C72F0
ENDCHAR

STARTCHAR char154
ENCODING 154
SWIDTH 16 0
DWIDTH 25 0
BBX 0 0 0 0
BITMAP
ENDCHAR

STARTCHAR char155
ENCODING 155
SWIDTH 32 0
DWIDTH 9 0
BBX 4 8 2 3
BITMAP
80
C0
70
30
30
70
C0
80
ENDCHAR

STARTCHAR char156
ENCODING 156
SWIDTH 21 0
DWIDTH 16 0
BBX 14 13 1 0
BITMAP
3CF0
4798
C308
820C
820C
83FC
8200
8200
8300
830C
8308
4798
38F0
ENDCHAR

STARTCHAR char159
ENCODING 159
SWIDTH 3 0
DWIDTH 11 0
BBX 11 21 0 0
BITMAP
2100
0000
0000
C060
C040
40C0
2080
2180
1100
1300
0A00
0E00
0400
0400
0400
0400
0400
0400
0400
0400
0400
ENDCHAR

STARTCHAR char160
ENCODING 160
SWIDTH 35 0
DWIDTH 10 0
BBX 0 0 0 0
BITMAP
ENDCHAR

STARTCHAR char161
ENCODING 161
SWIDTH 17 0
DWIDTH 5 0
BBX 2 18 1 0
BITMAP
C0
00
00
00
00
80
80
80
80
80
80
80
80
80
80
80
80
80
ENDCHAR

STARTCHAR char162
ENCODING 162
SWIDTH 32 0
DWIDTH 9 0
BBX 7 16 1 -2
BITMAP
10
7C
56
D2
92
90
90
90
90
90
92
D2
56
7C
10
10
ENDCHAR

STARTCHAR char163
ENCODING 163
SWIDTH 3 0
DWIDTH 11 0
BBX 9 18 1 0
BITMAP
1E00
3300
6180
4180
4080
4000
4000
2000
2000
FE00
3000
1000
1000
1000
1000
2000
7C80
C780
ENDCHAR

STARTCHAR char164
ENCODING 164
SWIDTH 0 0
DWIDTH 0 0
BBX 5 3 -1 19
BITMAP
30
60
40
ENDCHAR

STARTCHAR char165
ENCODING 165
SWIDTH 0 0
DWIDTH 0 0
BBX 7 3 -3 19
BITMAP
CC
68
30
ENDCHAR

STARTCHAR char166
ENCODING 166
SWIDTH 16 0
DWIDTH 25 0
BBX 0 0 0 0
BITMAP
ENDCHAR

STARTCHAR char167
ENCODING 167
SWIDTH 3 0
DWIDTH 11 0
BBX 9 22 1 -4
BITMAP
1C00
2200
4100
4100
4000
2000
3000
4C00
8600
8300
8080
C080
6080
3180
0F00
0600
0200
0100
4100
4100
2200
1C00
ENDCHAR

STARTCHAR char168
ENCODING 168
SWIDTH 0 0
DWIDTH 0 0
BBX 5 1 -2 15
BITMAP
88
ENDCHAR

STARTCHAR char169
ENCODING 169
SWIDTH 35 0
DWIDTH 20 0
BBX 16 16 1 0
BITMAP
07E0
1818
2004
41F2
4232
8411
8811
8801
8801
8801
8401
4623
43C2
2004
1818
07F0
ENDCHAR

STARTCHAR char170
ENCODING 170
SWIDTH 0 0
DWIDTH 0 0
BBX 5 1 -2 20
BITMAP
88
ENDCHAR

STARTCHAR char171
ENCODING 171
SWIDTH 35 0
DWIDTH 10 0
BBX 8 7 1 3
BITMAP
21
66
CC
88
46
23
21
ENDCHAR

STARTCHAR char172
ENCODING 172
SWIDTH 28 0
DWIDTH 18 0
BBX 16 7 0 0
BITMAP
FFFF
0001
0001
0001
0001
0001
0001
ENDCHAR

STARTCHAR char173
ENCODING 173
SWIDTH 16 0
DWIDTH 25 0
BBX 0 0 0 0
BITMAP
ENDCHAR

STARTCHAR char174
ENCODING 174
SWIDTH 35 0
DWIDTH 20 0
BBX 16 16 1 0
BITMAP
07E0
1818
2004
4FC2
4222
8221
8261
8381
82C1
82E1
8261
4233
4F3A
2004
1818
07F0
ENDCHAR

STARTCHAR char175
ENCODING 175
SWIDTH 16 0
DWIDTH 25 0
BBX 0 0 0 0
BITMAP
ENDCHAR

STARTCHAR char176
ENCODING 176
SWIDTH 35 0
DWIDTH 10 0
BBX 7 8 1 9
BITMAP
38
44
82
82
82
82
44
38
ENDCHAR

STARTCHAR char177
ENCODING 177
SWIDTH 13 0
DWIDTH 14 0
BBX 13 16 0 0
BITMAP
0200
0200
0200
0200
0200
0200
FFF8
0200
0200
0200
0200
0200
0200
0000
0000
FFF8
ENDCHAR

STARTCHAR char178
ENCODING 178
SWIDTH 16 0
DWIDTH 25 0
BBX 0 0 0 0
BITMAP
ENDCHAR

STARTCHAR char179
ENCODING 179
SWIDTH 16 0
DWIDTH 25 0
BBX 0 0 0 0
BITMAP
ENDCHAR

STARTCHAR char180
ENCODING 180
SWIDTH 0 0
DWIDTH 0 0
BBX 5 3 -1 14
BITMAP
30
60
C0
ENDCHAR

STARTCHAR char181
ENCODING 181
SWIDTH 16 0
DWIDTH 25 0
BBX 0 0 0 0
BITMAP
ENDCHAR

STARTCHAR char182
ENCODING 182
SWIDTH 28 0
DWIDTH 18 0
BBX 11 21 2 -4
BITMAP
1FE0
3840
7840
F840
F840
F840
7840
7840
3840
0840
0840
0840
0840
0840
0840
0840
0840
0840
0840
0840
0840
ENDCHAR

STARTCHAR char183
ENCODING 183
SWIDTH 14 0
DWIDTH 4 0
BBX 3 3 1 6
BITMAP
E0
E0
E0
ENDCHAR

STARTCHAR char184
ENCODING 184
SWIDTH 0 0
DWIDTH 0 0
BBX 1 4 0 -6
BITMAP
80
80
80
80
ENDCHAR

STARTCHAR char186
ENCODING 186
SWIDTH 0 0
DWIDTH 0 0
BBX 8 2 -4 20
BITMAP
71
4E
ENDCHAR

STARTCHAR char187
ENCODING 187
SWIDTH 35 0
DWIDTH 10 0
BBX 8 7 1 3
BITMAP
88
C4
63
23
46
8C
88
ENDCHAR

STARTCHAR char188
ENCODING 188
SWIDTH 16 0
DWIDTH 25 0
BBX 0 0 0 0
BITMAP
ENDCHAR

STARTCHAR char191
ENCODING 191
SWIDTH 35 0
DWIDTH 10 0
BBX 8 18 1 0
BITMAP
08
00
00
00
08
08
08
18
10
20
60
40
80
81
81
C3
62
3C
ENDCHAR

STARTCHAR char192
ENCODING 192
SWIDTH 3 0
DWIDTH 11 0
BBX 11 22 0 0
BITMAP
3000
1800
0C00
0000
0400
0E00
0A00
0A00
1A00
1300
1100
1100
3180
2180
2080
7F80
60C0
40C0
4040
C040
C060
8060
ENDCHAR

STARTCHAR char193
ENCODING 193
SWIDTH 3 0
DWIDTH 11 0
BBX 11 22 0 0
BITMAP
0300
0200
0400
0000
0400
0E00
0A00
0A00
1A00
1300
1100
1100
3180
2180
2080
7F80
60C0
40C0
4040
C040
C060
8060
ENDCHAR

STARTCHAR char194
ENCODING 194
SWIDTH 3 0
DWIDTH 11 0
BBX 11 22 0 0
BITMAP
0E00
1B00
3100
0000
0400
0E00
0A00
0A00
1A00
1300
1100
1100
3180
2180
2080
7F80
60C0
40C0
4040
C040
C060
8060
ENDCHAR

STARTCHAR char195
ENCODING 195
SWIDTH 3 0
DWIDTH 11 0
BBX 11 22 0 0
BITMAP
1C80
2700
0000
0000
0400
0E00
0A00
0A00
1A00
1300
1100
1100
3180
2180
2080
7F80
60C0
40C0
4040
C040
C060
8060
ENDCHAR

STARTCHAR char196
ENCODING 196
SWIDTH 3 0
DWIDTH 11 0
BBX 11 21 0 0
BITMAP
1100
0000
0000
0400
0E00
0A00
0A00
1A00
1B00
1100
1100
3180
3080
3080
7F80
40C0
40C0
40C0
C040
C060
8060
ENDCHAR

STARTCHAR char197
ENCODING 197
SWIDTH 3 0
DWIDTH 11 0
BBX 11 23 0 0
BITMAP
0E00
1100
1100
0E00
0000
0400
0E00
0A00
0A00
1A00
1300
1100
1100
3180
2180
2080
7F80
60C0
40C0
4040
C040
C060
8060
ENDCHAR

STARTCHAR char198
ENCODING 198
SWIDTH 24 0
DWIDTH 17 0
BBX 16 18 0 0
BITMAP
03FF
0680
0480
0480
0C80
0880
0880
1880
10FE
1080
3080
3F80
2080
6080
4080
4080
C080
80FF
ENDCHAR

STARTCHAR char199
ENCODING 199
SWIDTH 10 0
DWIDTH 13 0
BBX 10 24 1 -6
BITMAP
3E00
6300
4080
C0C0
C0C0
8000
8000
8000
8000
8000
8000
8000
8040
C0C0
40C0
4080
6300
3E00
0000
0000
0800
0800
0800
0800
ENDCHAR

STARTCHAR char200
ENCODING 200
SWIDTH 3 0
DWIDTH 11 0
BBX 9 22 1 0
BITMAP
6000
3000
1000
0000
FF80
8000
8000
8000
8000
8000
8000
8000
FF00
8000
8000
8000
8000
8000
8000
8000
8000
FF80
ENDCHAR

STARTCHAR char201
ENCODING 201
SWIDTH 3 0
DWIDTH 11 0
BBX 9 22 1 0
BITMAP
0600
0C00
0800
0000
FF80
8000
8000
8000
8000
8000
8000
8000
FF00
8000
8000
8000
8000
8000
8000
8000
8000
FF80
ENDCHAR

STARTCHAR char202
ENCODING 202
SWIDTH 3 0
DWIDTH 11 0
BBX 9 22 1 0
BITMAP
1800
2400
6200
0000
FF80
8000
8000
8000
8000
8000
8000
8000
FF00
8000
8000
8000
8000
8000
8000
8000
8000
FF80
ENDCHAR

STARTCHAR char203
ENCODING 203
SWIDTH 3 0
DWIDTH 11 0
BBX 9 21 1 0
BITMAP
6200
0000
0000
FF80
8000
8000
8000
8000
8000
8000
8000
FF00
8000
8000
8000
8000
8000
8000
8000
8000
FF80
ENDCHAR

STARTCHAR char204
ENCODING 204
SWIDTH 14 0
DWIDTH 4 0
BBX 5 22 -2 0
BITMAP
60
30
08
00
08
08
08
08
08
08
08
08
08
08
08
08
08
08
08
08
08
08
ENDCHAR

STARTCHAR char205
ENCODING 205
SWIDTH 14 0
DWIDTH 4 0
BBX 4 22 2 0
BITMAP
60
40
80
00
80
80
80
80
80
80
80
80
80
80
80
80
80
80
80
80
80
80
ENDCHAR

STARTCHAR char206
ENCODING 206
SWIDTH 14 0
DWIDTH 4 0
BBX 7 22 -1 0
BITMAP
38
48
C4
00
10
10
10
10
10
10
10
10
10
10
10
10
10
10
10
10
10
10
ENDCHAR

STARTCHAR char207
ENCODING 207
SWIDTH 14 0
DWIDTH 4 0
BBX 6 21 -1 0
BITMAP
84
00
00
10
10
10
10
10
10
10
10
10
10
10
10
10
10
10
10
10
10
ENDCHAR

STARTCHAR char208
ENCODING 208
SWIDTH 16 0
DWIDTH 25 0
BBX 0 0 0 0
BITMAP
ENDCHAR

STARTCHAR char209
ENCODING 209
SWIDTH 10 0
DWIDTH 13 0
BBX 10 22 1 0
BITMAP
3880
2F00
0000
0000
C040
E040
E040
E040
B040
B040
9840
9840
8C40
8C40
8640
8640
8340
8340
81C0
81C0
80C0
80C0
ENDCHAR

STARTCHAR char210
ENCODING 210
SWIDTH 10 0
DWIDTH 13 0
BBX 10 22 1 0
BITMAP
3000
1800
0800
0000
1E00
3100
6080
4080
C040
8040
8040
8040
8040
8040
8040
8040
8040
8040
4080
4080
7100
1E00
ENDCHAR

STARTCHAR char211
ENCODING 211
SWIDTH 10 0
DWIDTH 13 0
BBX 10 22 1 0
BITMAP
0300
0600
0400
0000
1E00
3100
6080
4080
C040
8040
8040
8040
8040
8040
8040
8040
8040
8040
4080
4080
7100
1E00
ENDCHAR

STARTCHAR char212
ENCODING 212
SWIDTH 10 0
DWIDTH 13 0
BBX 10 22 1 0
BITMAP
0C00
1200
3100
0000
1E00
3100
6080
4080
C040
8040
8040
8040
8040
8040
8040
8040
8040
8040
4080
4080
7100
1E00
ENDCHAR

STARTCHAR char213
ENCODING 213
SWIDTH 10 0
DWIDTH 13 0
BBX 10 22 1 0
BITMAP
3880
2700
0000
0000
1E00
3100
6080
4080
C040
8040
8040
8040
8040
8040
8040
8040
8040
8040
4080
4080
7100
1E00
ENDCHAR

STARTCHAR char214
ENCODING 214
SWIDTH 10 0
DWIDTH 13 0
BBX 10 21 1 0
BITMAP
1100
0000
0000
1E00
3180
6080
40C0
C040
8040
8040
8040
8040
8040
8040
8040
8040
8040
4080
4080
7100
1E00
ENDCHAR

STARTCHAR char215
ENCODING 215
SWIDTH 16 0
DWIDTH 25 0
BBX 0 0 0 0
BITMAP
ENDCHAR

STARTCHAR char216
ENCODING 216
SWIDTH 10 0
DWIDTH 13 0
BBX 12 19 0 -1
BITMAP
0FA0
18E0
3040
2040
60A0
60A0
4120
4120
4220
4420
4420
4820
4820
7020
6040
2040
3080
4F00
4000
ENDCHAR

STARTCHAR char217
ENCODING 217
SWIDTH 10 0
DWIDTH 13 0
BBX 10 22 1 0
BITMAP
3000
1800
0800
0000
8040
8040
8040
8040
8040
8040
8040
8040
8040
8040
8040
8040
8040
8040
8040
C0C0
6180
1F00
ENDCHAR

STARTCHAR char218
ENCODING 218
SWIDTH 10 0
DWIDTH 13 0
BBX 10 22 1 0
BITMAP
0300
0600
0400
0000
8040
8040
8040
8040
8040
8040
8040
8040
8040
8040
8040
8040
8040
8040
8040
C0C0
6180
1F00
ENDCHAR

STARTCHAR char219
ENCODING 219
SWIDTH 10 0
DWIDTH 13 0
BBX 10 22 1 0
BITMAP
0C00
1200
3100
0000
8040
8040
8040
8040
8040
8040
8040
8040
8040
8040
8040
8040
8040
8040
8040
C0C0
6180
1F00
ENDCHAR

STARTCHAR char220
ENCODING 220
SWIDTH 10 0
DWIDTH 13 0
BBX 10 21 1 0
BITMAP
1100
0000
0000
8040
8040
8040
8040
8040
8040
8040
8040
8040
8040
8040
8040
8040
8040
8040
C0C0
6180
1F00
ENDCHAR

STARTCHAR char221
ENCODING 221
SWIDTH 16 0
DWIDTH 25 0
BBX 0 0 0 0
BITMAP
ENDCHAR

STARTCHAR char223
ENCODING 223
SWIDTH 35 0
DWIDTH 10 0
BBX 8 18 1 0
BITMAP
38
64
C2
C2
82
82
82
8C
8C
82
83
83
81
81
83
83
92
9E
ENDCHAR

STARTCHAR char224
ENCODING 224
SWIDTH 35 0
DWIDTH 10 0
BBX 8 17 1 0
BITMAP
60
30
10
00
7C
46
86
02
06
0E
72
C2
82
82
86
CE
79
ENDCHAR

STARTCHAR char225
ENCODING 225
SWIDTH 35 0
DWIDTH 10 0
BBX 8 17 1 0
BITMAP
0C
08
10
00
7C
46
86
02
06
0E
72
C2
82
82
86
CE
79
ENDCHAR

STARTCHAR char226
ENCODING 226
SWIDTH 35 0
DWIDTH 10 0
BBX 8 18 1 0
BITMAP
18
28
64
42
00
7C
46
86
02
06
0E
72
C2
82
82
86
CE
79
ENDCHAR

STARTCHAR char227
ENCODING 227
SWIDTH 35 0
DWIDTH 10 0
BBX 8 17 1 0
BITMAP
72
5E
00
00
7C
46
86
02
06
0E
72
C2
82
82
86
CE
79
ENDCHAR

STARTCHAR char228
ENCODING 228
SWIDTH 35 0
DWIDTH 10 0
BBX 8 17 1 0
BITMAP
46
46
00
00
3C
46
86
02
06
0E
3A
42
82
82
86
C6
7B
ENDCHAR

STARTCHAR char229
ENCODING 229
SWIDTH 35 0
DWIDTH 10 0
BBX 8 19 1 0
BITMAP
38
64
44
64
38
00
3C
46
86
02
06
0E
72
42
82
82
86
C6
7B
ENDCHAR

STARTCHAR char230
ENCODING 230
SWIDTH 17 0
DWIDTH 15 0
BBX 13 13 1 0
BITMAP
39E0
4730
8610
0618
0618
1FF8
7400
4400
8400
8618
8610
8B30
71E0
ENDCHAR

STARTCHAR char231
ENCODING 231
SWIDTH 32 0
DWIDTH 9 0
BBX 7 19 1 -6
BITMAP
3C
46
C2
82
80
80
80
80
80
82
C2
46
3C
00
00
10
10
10
10
ENDCHAR

STARTCHAR char232
ENCODING 232
SWIDTH 35 0
DWIDTH 10 0
BBX 8 17 1 0
BITMAP
60
30
10
00
3C
46
83
81
81
FF
80
80
80
83
C3
46
3C
ENDCHAR

STARTCHAR char233
ENCODING 233
SWIDTH 35 0
DWIDTH 10 0
BBX 8 17 1 0
BITMAP
0C
08
10
00
3C
46
83
81
81
FF
80
80
80
83
C3
46
3C
ENDCHAR

STARTCHAR char234
ENCODING 234
SWIDTH 35 0
DWIDTH 10 0
BBX 8 18 1 0
BITMAP
18
28
64
46
00
3C
46
83
81
81
FF
80
80
80
83
C3
46
3C
ENDCHAR

STARTCHAR char235
ENCODING 235
SWIDTH 35 0
DWIDTH 10 0
BBX 8 16 1 0
BITMAP
46
00
00
3C
46
83
81
81
FF
80
80
80
83
C3
46
3C
ENDCHAR

STARTCHAR char236
ENCODING 236
SWIDTH 14 0
DWIDTH 4 0
BBX 5 17 -2 0
BITMAP
60
30
18
00
08
08
08
08
08
08
08
08
08
08
08
08
08
ENDCHAR

STARTCHAR char237
ENCODING 237
SWIDTH 14 0
DWIDTH 4 0
BBX 4 17 1 0
BITMAP
30
60
C0
00
40
40
40
40
40
40
40
40
40
40
40
40
40
ENDCHAR

STARTCHAR char238
ENCODING 238
SWIDTH 14 0
DWIDTH 4 0
BBX 6 18 -1 0
BITMAP
30
78
CC
84
00
10
10
10
10
10
10
10
10
10
10
10
10
10
ENDCHAR

STARTCHAR char239
ENCODING 239
SWIDTH 14 0
DWIDTH 4 0
BBX 6 16 -1 0
BITMAP
84
00
00
10
10
10
10
10
10
10
10
10
10
10
10
10
ENDCHAR

STARTCHAR char241
ENCODING 241
SWIDTH 35 0
DWIDTH 10 0
BBX 8 17 1 0
BITMAP
71
8E
00
00
9E
E3
C1
81
81
81
81
81
81
81
81
81
81
ENDCHAR

STARTCHAR char242
ENCODING 242
SWIDTH 35 0
DWIDTH 10 0
BBX 8 17 1 0
BITMAP
60
30
18
00
3C
42
C3
81
81
81
81
81
81
81
C2
42
3C
ENDCHAR

STARTCHAR char243
ENCODING 243
SWIDTH 35 0
DWIDTH 10 0
BBX 8 17 1 0
BITMAP
06
0C
18
00
3C
42
C3
81
81
81
81
81
81
81
C2
42
3C
ENDCHAR

STARTCHAR char244
ENCODING 244
SWIDTH 35 0
DWIDTH 10 0
BBX 8 18 1 0
BITMAP
18
3C
24
42
00
3C
42
C3
81
81
81
81
81
81
81
C2
42
3C
ENDCHAR

STARTCHAR char245
ENCODING 245
SWIDTH 35 0
DWIDTH 10 0
BBX 8 17 1 0
BITMAP
72
4E
00
00
3C
42
C3
81
81
81
81
81
81
81
C2
42
3C
ENDCHAR

STARTCHAR char246
ENCODING 246
SWIDTH 35 0
DWIDTH 10 0
BBX 8 16 1 0
BITMAP
66
00
00
3C
62
C3
81
81
81
81
81
81
81
C3
46
3C
ENDCHAR

STARTCHAR char247
ENCODING 247
SWIDTH 13 0
DWIDTH 14 0
BBX 13 9 0 2
BITMAP
0700
0700
0700
0000
FFF8
0000
0700
0700
0700
ENDCHAR

STARTCHAR char248
ENCODING 248
SWIDTH 35 0
DWIDTH 10 0
BBX 10 15 0 -1
BITMAP
0080
1F80
2100
2100
4280
4280
4480
4880
4880
5080
5080
6100
6300
FE00
4000
ENDCHAR

STARTCHAR char249
ENCODING 249
SWIDTH 35 0
DWIDTH 10 0
BBX 8 17 1 0
BITMAP
60
30
18
00
83
83
83
83
83
83
83
83
83
83
83
C7
79
ENDCHAR

STARTCHAR char250
ENCODING 250
SWIDTH 35 0
DWIDTH 10 0
BBX 8 17 1 0
BITMAP
06
0C
18
00
83
83
83
83
83
83
83
83
83
83
83
C7
79
ENDCHAR

STARTCHAR char251
ENCODING 251
SWIDTH 35 0
DWIDTH 10 0
BBX 8 18 1 0
BITMAP
18
3C
66
42
00
83
83
83
83
83
83
83
83
83
83
83
C7
79
ENDCHAR

STARTCHAR char252
ENCODING 252
SWIDTH 35 0
DWIDTH 10 0
BBX 8 16 1 0
BITMAP
67
00
00
83
83
83
83
83
83
83
83
83
83
83
C7
7D
ENDCHAR

STARTCHAR char255
ENCODING 255
SWIDTH 28 0
DWIDTH 8 0
BBX 8 20 0 -4
BITMAP
44
00
00
81
81
43
42
42
42
26
24
24
3C
18
18
18
18
10
30
E0
ENDCHAR
ENDFONT
